<?xml version="1.0" encoding="utf-8"?>
<!-- Generator: Adobe Illustrator 23.0.0, SVG Export Plug-In . SVG Version: 6.00 Build 0)  -->
<svg version="1.1" id="Ebene_1" xmlns="http://www.w3.org/2000/svg" xmlns:xlink="http://www.w3.org/1999/xlink" x="0px" y="0px"
	 viewBox="0 0 1500 1000" style="enable-background:new 0 0 1500 1000;" xml:space="preserve">
<style type="text/css">
	.st0{fill:url(#SVGID_1_);}
	.st1{fill:url(#SVGID_2_);}
	.st2{fill:url(#SVGID_3_);}
</style>
<g>
	
		<linearGradient id="SVGID_1_" gradientUnits="userSpaceOnUse" x1="503.4148" y1="2258.9194" x2="525.0989" y2="3022.9736" gradientTransform="matrix(-0.7071 0.7071 -0.7071 -0.7071 3126.7456 1760.0446)">
		<stop  offset="0" style="stop-color:#AF2D24"/>
		<stop  offset="0.1223" style="stop-color:#BF3025"/>
		<stop  offset="0.3733" style="stop-color:#DE3424"/>
		<stop  offset="0.5196" style="stop-color:#EE3524"/>
	</linearGradient>
	<path class="st0" d="M974.6,217L1190,432.5l0,0c0,0,156.3,160.3,224.8,100l0.2,0.1c-25,24.9-62.6,62.6-62.7,62.7
		c-89.8,89.5-235.1,89.4-324.8-0.2l-52.9-53L812.1,379.5L649.5,217C739.3,127.2,884.8,127.2,974.6,217z"/>
	
		<linearGradient id="SVGID_2_" gradientUnits="userSpaceOnUse" x1="430.746" y1="2683.7913" x2="1458.8247" y2="2683.7913" gradientTransform="matrix(-0.7071 0.7071 -0.7071 -0.7071 3126.7456 1760.0446)">
		<stop  offset="0" style="stop-color:#BF2F27"/>
		<stop  offset="1.700019e-02" style="stop-color:#C02F27"/>
		<stop  offset="0.3798" style="stop-color:#D63225"/>
		<stop  offset="0.7144" style="stop-color:#E63524"/>
		<stop  offset="0.9916" style="stop-color:#EE3524"/>
	</linearGradient>
	<path class="st1" d="M410,781.4L649.5,542L812,379.5c0,0,156.2-160.3,224.9-100l0.1-0.1c-24.9-24.9-62.7-62.6-62.7-62.7
		c-89.8-89.5-235.1-89.4-324.8,0.3L247.5,619l0,0L85,781.4C174.7,871.2,320.3,871.2,410,781.4z"/>
	
		<linearGradient id="SVGID_3_" gradientUnits="userSpaceOnUse" x1="2022.6417" y1="1800.532" x2="2022.6417" y2="781.8307" gradientTransform="matrix(0 -1 1 0 -385.5518 2713.9141)">
		<stop  offset="0.5195" style="stop-color:#EE3524"/>
		<stop  offset="0.8116" style="stop-color:#BF2F27"/>
	</linearGradient>
	<path class="st2" d="M1185.1,762H880.4l0,0c0,0-223.8-2.8-229.6,88.3h-0.2c0-35.3,0-88.6,0-88.6c0.2-126.7,103-229.5,229.8-229.5
		h74.9h229.9H1415C1415,659.1,1312.1,762,1185.1,762z"/>
</g>
</svg>
